<?xml version="1.0" standalone="no"?>
<!DOCTYPE svg PUBLIC "-//W3C//DTD SVG 20010904//EN"
 "http://www.w3.org/TR/2001/REC-SVG-20010904/DTD/svg10.dtd">
<svg version="1.0" xmlns="http://www.w3.org/2000/svg"
 width="352.000000pt" height="360.000000pt" viewBox="0 0 352.000000 360.000000"
 preserveAspectRatio="xMidYMid meet">

<g transform="translate(0.000000,360.000000) scale(0.100000,-0.100000)"
fill="#000000" stroke="none">
<path d="M1695 3588 c-45 -25 -79 -100 -37 -83 9 4 47 10 83 12 62 5 66 7 61
27 -12 50 -60 70 -107 44z"/>
<path d="M2041 3501 c-12 -22 -5 -31 23 -31 12 0 34 -7 50 -15 28 -15 28 -15
22 13 -13 50 -75 72 -95 33z"/>
<path d="M1690 3402 c-19 -11 -48 -37 -65 -59 -26 -34 -41 -43 -116 -66 -70
-21 -104 -40 -190 -103 -191 -141 -248 -212 -299 -370 -31 -96 -60 -282 -60
-382 0 -46 -10 -79 -50 -172 -27 -63 -50 -121 -50 -127 0 -7 -7 -13 -16 -13
-30 0 -149 -53 -215 -96 -185 -118 -303 -317 -318 -533 l-6 -94 -57 -20 c-114
-41 -201 -132 -234 -246 -16 -52 -15 -82 10 -516 25 -425 28 -463 49 -505 16
-32 35 -52 67 -70 41 -22 59 -25 186 -28 176 -5 242 7 294 54 l37 34 1103 0
1103 0 37 -34 c52 -47 118 -59 294 -54 127 3 145 6 186 28 32 18 51 38 67 70
21 42 24 80 49 505 25 434 26 464 10 516 -33 115 -128 212 -238 245 l-58 18 0
70 c-1 265 -188 527 -447 627 -59 23 -63 26 -83 79 -12 30 -37 141 -56 245
-106 585 -187 758 -391 840 -34 14 -42 22 -47 51 -8 42 -63 99 -104 107 -41 8
-94 -8 -122 -38 l-24 -25 -30 29 c-17 16 -44 35 -59 40 -44 17 -118 13 -157
-7z m170 -24 c67 -46 97 -118 80 -192 -11 -48 -36 -83 -81 -114 -28 -20 -44
-23 -92 -20 -49 4 -62 9 -92 38 -43 41 -59 87 -53 151 12 126 143 201 238 137z
m245 -4 c129 -61 43 -275 -89 -220 -39 16 -38 15 -54 100 -13 68 -6 88 41 116
39 24 59 25 102 4z m-497 -275 c44 -72 133 -111 207 -90 51 13 108 60 129 106
16 33 18 34 39 21 38 -23 75 -27 113 -11 20 8 40 12 45 9 5 -3 9 -2 7 3 -1 4
7 25 17 46 15 30 23 36 39 31 32 -10 87 -45 129 -83 90 -81 157 -290 238 -741
27 -151 40 -197 94 -335 93 -233 94 -248 56 -485 -17 -107 -38 -245 -46 -306
-8 -61 -23 -135 -34 -165 -38 -102 -125 -212 -225 -287 -29 -22 -29 -22 -647
-22 l-618 0 -73 58 c-177 141 -239 261 -239 467 -1 55 6 145 15 199 12 71 16
150 14 280 l-3 181 38 108 c20 59 53 142 72 185 33 71 37 88 45 214 19 280 81
454 198 560 21 19 65 54 98 77 32 23 77 55 98 71 22 17 67 39 100 49 l61 19 6
-62 c3 -38 14 -76 27 -97z m-778 -1045 c0 -3 -5 -25 -11 -49 -10 -38 -16 -46
-48 -57 -25 -8 -31 -13 -18 -16 10 -2 24 2 32 8 13 11 15 -6 17 -126 3 -178 1
-218 -17 -334 -28 -187 -16 -308 43 -434 l29 -61 -59 28 c-64 31 -72 42 -83
104 -8 50 -68 147 -116 187 -49 42 -130 77 -194 83 l-55 6 0 41 c3 258 168
503 407 602 60 25 73 28 73 18z m2030 -69 c53 -32 141 -114 190 -177 62 -81
119 -257 120 -377 l0 -44 -52 6 c-30 4 -47 3 -40 -2 10 -6 4 -10 -18 -15 -52
-10 -137 -64 -177 -112 -27 -32 -40 -41 -49 -33 -18 14 -37 -21 -22 -42 8 -12
9 -11 5 3 -6 18 1 30 14 23 4 -3 1 -21 -7 -40 -8 -19 -19 -56 -24 -82 -10 -44
-15 -50 -56 -69 -32 -15 -44 -17 -40 -8 3 8 2 14 -3 14 -5 0 -11 -10 -14 -22
-4 -12 -8 -20 -11 -17 -3 3 6 33 20 67 15 38 32 116 45 209 11 81 31 212 45
291 36 213 30 287 -31 426 -14 31 -25 59 -25 61 0 9 70 -24 130 -60z m-2398
-666 c79 -20 175 -122 199 -211 11 -42 3 -308 -10 -306 -3 1 -14 -2 -24 -7
-15 -6 -16 -10 -5 -16 11 -7 10 -11 -2 -19 -8 -5 -10 -10 -5 -10 6 0 17 5 25
11 11 8 12 12 2 16 -6 2 -10 9 -6 14 3 5 10 7 15 4 17 -11 9 -31 -20 -52 l-29
-22 6 157 c3 99 9 160 16 164 8 5 7 8 -1 8 -7 0 -13 8 -13 18 0 62 -84 165
-155 192 -34 13 -146 29 -140 20 2 -3 -15 -11 -38 -17 -37 -10 -40 -10 -23 3
21 15 18 18 -8 8 -9 -3 -16 -10 -16 -15 0 -11 -70 -83 -82 -85 -4 -1 -11 -3
-15 -4 -5 -1 -10 -2 -13 -2 -3 0 -12 -10 -21 -22 -16 -21 -16 -22 4 -24 17 -1
19 1 7 8 -13 9 -12 11 6 9 3 0 12 8 20 18 19 25 17 8 -2 -23 -24 -36 -28 -134
-15 -386 6 -123 14 -290 17 -373 3 -82 8 -184 11 -225 l5 -75 -21 30 c-28 41
-28 42 -51 440 -11 193 -21 367 -22 387 -1 20 1 40 5 44 4 4 7 12 7 18 0 6 -5
4 -10 -4 -19 -29 -11 88 10 143 26 69 75 126 139 160 83 45 150 52 253 26z
m2835 -20 c74 -35 125 -91 153 -166 20 -55 27 -153 11 -153 -5 0 -7 -17 -4
-37 5 -38 -33 -735 -43 -783 -2 -14 -14 -39 -25 -55 l-21 -30 6 75 c4 41 7 82
7 90 0 8 7 179 16 380 16 392 15 476 -11 515 -9 14 -14 30 -11 36 4 5 3 8 -2
7 -11 -4 -83 68 -83 82 0 5 -2 10 -4 10 -2 0 -13 3 -23 6 -16 6 -15 5 2 -9 18
-14 17 -15 -22 -4 -24 6 -39 14 -34 17 5 3 -24 5 -64 5 -41 0 -77 -4 -82 -9
-4 -4 6 -5 22 -2 17 3 23 3 15 0 -56 -23 -107 -50 -118 -63 -34 -42 -61 -92
-67 -125 -4 -20 -12 -36 -19 -36 -8 0 -8 -3 1 -8 13 -8 21 -237 9 -250 -4 -3
-12 0 -17 8 -9 12 -10 12 -5 -2 3 -10 0 -18 -6 -18 -7 0 -6 -5 2 -15 7 -8 18
-15 24 -14 7 0 6 2 -1 6 -17 6 -16 20 2 27 12 4 15 -3 15 -33 l0 -39 -29 27
c-26 25 -29 33 -32 116 -9 208 -5 256 23 311 26 50 84 110 130 135 38 21 130
38 178 33 25 -3 73 -19 107 -35z m-2844 -75 c48 -24 96 -74 90 -92 -4 -10 -2
-13 5 -8 18 11 32 -61 31 -159 0 -49 -3 -82 -7 -73 -4 10 -6 -38 -5 -105 1
-95 -3 -128 -15 -152 -12 -22 -16 -53 -14 -115 6 -226 2 -444 -8 -454 -11 -11
-249 -14 -315 -5 l-30 4 -12 245 c-7 135 -14 336 -15 446 -2 111 -6 197 -10
190 -4 -6 -8 19 -8 57 0 37 3 67 8 67 4 0 8 12 8 26 3 37 52 95 104 122 54 27
145 30 193 6z m2803 -3 c49 -22 97 -78 113 -130 12 -40 15 -178 3 -149 -4 9
-8 -77 -10 -190 -1 -114 -8 -315 -15 -447 l-12 -239 -45 -9 c-58 -10 -287 -4
-300 9 -12 12 -17 324 -6 424 7 63 5 83 -12 126 -15 40 -19 74 -18 158 1 58
-2 106 -6 106 -12 0 -9 170 3 213 6 23 14 35 21 31 7 -5 9 -2 5 8 -7 21 56 83
75 73 7 -5 9 -4 5 0 -14 16 38 34 98 34 37 1 75 -6 101 -18z m-439 -492 c64
-24 118 -102 124 -179 l4 -45 -1185 0 -1185 0 3 45 c6 71 52 143 117 178 28
16 2082 17 2122 1z m-2188 -281 l11 -23 -6 23 -5 22 1131 0 c1110 0 1131 0
1125 -19 -3 -11 0 -23 6 -27 7 -4 9 -3 6 4 -11 17 4 42 24 42 25 0 24 -13 -7
-71 -31 -55 -63 -82 -85 -68 -23 14 -35 10 -14 -5 46 -34 -37 -36 -1056 -36
-546 1 -1005 4 -1020 7 -15 3 -32 16 -40 29 -7 13 -14 22 -17 19 -3 -2 1 -12
9 -22 12 -14 9 -14 -20 3 -31 18 -91 104 -91 132 0 21 36 13 49 -10z m-5 -220
c-8 -89 -11 -101 -34 -128 l-20 -23 0 24 c0 14 5 30 12 37 7 7 8 12 3 12 -6 0
-9 40 -7 97 l3 96 25 -26 c21 -23 23 -32 18 -89z m2315 15 c2 -54 4 -113 7
-132 l4 -34 -20 23 c-22 26 -27 43 -32 108 -2 24 1 42 7 43 5 0 4 3 -2 6 -19
7 -16 30 9 58 12 14 22 25 24 25 1 0 2 -44 3 -97z m-107 -85 c18 -18 24 -38
12 -38 -4 0 -13 8 -20 18 -8 10 -13 12 -14 5 0 -19 -2100 -19 -2100 0 -1 7 -6
5 -14 -5 -7 -10 -16 -18 -20 -18 -12 0 -6 20 11 38 17 16 82 17 1073 17 991 0
1056 -1 1072 -17z"/>
<path d="M1734 3235 c-7 -18 3 -35 21 -35 21 0 28 19 15 35 -16 19 -29 19 -36
0z"/>
<path d="M2027 3273 c-12 -11 -8 -23 8 -23 8 0 15 7 15 15 0 16 -12 20 -23 8z"/>
<path d="M1410 3068 c-18 -13 -41 -39 -51 -58 -23 -47 -34 -100 -20 -100 6 0
11 7 11 15 0 8 5 25 11 39 l12 25 66 -57 c37 -31 82 -68 102 -81 l35 -24 -18
-55 c-55 -167 -63 -358 -19 -457 29 -65 81 -118 145 -146 86 -38 281 -37 404
2 l32 11 0 126 c0 153 14 284 38 354 18 55 29 64 107 88 57 18 135 51 135 59
0 3 -33 35 -72 71 -74 67 -79 65 -20 -7 18 -23 31 -47 27 -52 -3 -6 -43 -22
-88 -37 -119 -39 -308 -45 -427 -15 -146 37 -280 112 -378 214 l-44 44 39 32
c44 36 24 43 -27 9z m637 -864 c-3 -3 -12 -4 -19 -1 -8 3 -5 6 6 6 11 1 17 -2
13 -5z"/>
<path d="M1236 2615 c-23 -24 -28 -52 -14 -82 27 -58 108 -33 108 32 0 54 -58
85 -94 50z m11 -57 c-3 -8 -6 -5 -6 6 -1 11 2 17 5 13 3 -3 4 -12 1 -19z"/>
<path d="M2373 2225 c-27 -19 -38 -67 -22 -97 16 -30 28 -38 61 -38 54 0 76
74 37 124 -23 30 -45 33 -76 11z"/>
<path d="M2410 1949 c-25 -46 18 -102 60 -79 47 25 32 100 -20 100 -19 0 -33
-7 -40 -21z"/>
<path d="M1093 1950 c-86 -35 -84 -233 2 -272 76 -34 153 78 125 182 -20 72
-75 112 -127 90z"/>
<path d="M1894 1159 c-32 -11 -54 -49 -54 -92 0 -87 107 -121 145 -46 30 58
12 118 -42 137 -16 5 -38 6 -49 1z"/>
<path d="M2366 1159 c2 -4 0 -10 -6 -14 -18 -11 -11 -64 10 -75 46 -25 94 22
66 64 -13 21 -83 45 -70 25z"/>
<path d="M1489 1004 c-28 -34 33 -75 84 -55 31 12 38 55 11 65 -30 11 -82 6
-95 -10z"/>
<path d="M773 1880 c0 -25 2 -35 4 -22 2 12 2 32 0 45 -2 12 -4 2 -4 -23z"/>
<path d="M683 1903 c-18 -7 -16 -23 2 -23 8 0 15 7 15 15 0 8 -1 15 -2 14 -2
0 -9 -3 -15 -6z"/>
<path d="M605 1864 c-30 -25 -30 -25 -3 -13 15 6 29 18 32 25 7 18 6 18 -29
-12z"/>
<path d="M520 1795 c-19 -19 -32 -35 -28 -35 4 0 16 10 28 22 11 12 23 18 27
14 4 -4 1 -11 -7 -16 -8 -5 -11 -12 -7 -16 4 -4 10 -5 13 -1 6 6 16 68 11 66
-1 0 -18 -16 -37 -34z"/>
<path d="M446 1711 c-3 -5 1 -14 8 -20 10 -9 16 -9 21 -1 4 6 4 14 1 17 -3 4
-6 1 -6 -6 0 -7 -5 -9 -10 -6 -6 4 -8 11 -5 16 4 5 4 9 1 9 -3 0 -7 -4 -10 -9z"/>
<path d="M417 1653 c-4 -3 -7 -11 -7 -17 0 -6 5 -5 12 2 6 6 9 14 7 17 -3 3
-9 2 -12 -2z"/>
<path d="M772 1570 c0 -14 2 -19 5 -12 2 6 2 18 0 25 -3 6 -5 1 -5 -13z"/>
<path d="M374 1555 c-3 -8 -4 -20 -1 -27 3 -7 6 -3 6 9 1 12 7 24 14 26 9 4 9
6 -1 6 -7 1 -15 -6 -18 -14z"/>
<path d="M736 1481 c-4 -5 -2 -12 3 -15 5 -4 12 -2 15 3 4 5 2 12 -3 15 -5 4
-12 2 -15 -3z"/>
<path d="M360 1430 c0 -16 4 -30 8 -30 5 0 7 14 4 30 -2 17 -6 30 -8 30 -2 0
-4 -13 -4 -30z"/>
<path d="M756 1445 c-9 -26 -7 -32 5 -12 6 10 9 21 6 23 -2 3 -7 -2 -11 -11z"/>
<path d="M496 1431 c-18 -7 -18 -8 -3 -14 9 -3 17 -2 17 3 0 5 8 11 18 13 11
3 12 5 2 5 -8 0 -24 -3 -34 -7z"/>
<path d="M413 1413 c9 -2 23 -2 30 0 6 3 -1 5 -18 5 -16 0 -22 -2 -12 -5z"/>
<path d="M445 1399 c-16 -8 -15 -8 8 -4 21 4 27 2 21 -6 -4 -8 -3 -9 5 -5 6 4
19 2 27 -5 8 -6 17 -9 20 -6 5 5 -49 38 -58 36 -2 0 -12 -5 -23 -10z"/>
<path d="M538 1398 c7 -7 12 -19 12 -27 0 -9 26 -38 58 -65 31 -28 46 -37 32
-22 -16 18 -21 29 -13 34 7 4 1 14 -16 26 l-26 20 19 -22 c22 -26 15 -28 -18
-7 -13 9 -26 29 -30 45 -3 17 -11 30 -18 30 -9 0 -9 -3 0 -12z"/>
<path d="M740 1371 c5 -11 11 -37 11 -58 1 -26 3 -30 6 -14 6 32 -5 91 -18 91
-6 0 -6 -7 1 -19z"/>
<path d="M730 1273 c0 -6 -13 -9 -30 -8 -16 1 -27 -1 -24 -6 3 -5 0 -9 -6 -9
-6 0 -8 -5 -5 -10 4 -6 11 -8 16 -4 6 3 9 0 8 -7 -1 -8 1 -22 6 -32 6 -14 10
-16 16 -6 4 8 3 19 -3 27 -8 9 -8 16 0 24 9 9 12 8 13 -2 0 -8 5 -4 10 9 5 13
7 26 4 29 -3 3 -5 1 -5 -5z"/>
<path d="M751 1230 c0 -8 4 -22 9 -30 12 -18 12 -2 0 25 -6 13 -9 15 -9 5z"/>
<path d="M731 1158 c-1 -16 4 -28 9 -28 6 0 10 2 10 4 0 2 3 12 7 22 4 11 3
15 -4 11 -6 -4 -14 -1 -16 5 -3 7 -6 1 -6 -14z"/>
<path d="M771 1144 c0 -11 3 -14 6 -6 3 7 2 16 -1 19 -3 4 -6 -2 -5 -13z"/>
<path d="M781 1104 c0 -11 3 -14 6 -6 3 7 2 16 -1 19 -3 4 -6 -2 -5 -13z"/>
<path d="M790 1059 c0 -13 4 -18 12 -13 8 5 9 2 5 -10 -4 -10 -3 -15 3 -11 6
3 10 1 10 -6 0 -7 3 -10 6 -7 6 6 -23 68 -31 68 -3 0 -5 -9 -5 -21z"/>
<path d="M760 1063 c0 -5 5 -15 10 -23 8 -12 10 -11 10 8 0 12 -4 22 -10 22
-5 0 -10 -3 -10 -7z"/>
<path d="M2840 1890 c0 -5 5 -10 10 -10 6 0 10 5 10 10 0 6 -4 10 -10 10 -5 0
-10 -4 -10 -10z"/>
<path d="M2831 1847 c-1 -7 -3 -48 -6 -92 -3 -59 -2 -69 4 -40 5 22 7 45 4 51
-2 7 0 28 5 48 6 20 7 38 3 40 -4 3 -9 0 -10 -7z"/>
<path d="M2901 1851 c-10 -7 -7 -9 12 -8 14 1 23 5 20 10 -6 9 -15 9 -32 -2z"/>
<path d="M2992 1774 c-14 -16 -5 -18 17 -5 7 5 9 11 5 14 -5 3 -15 -1 -22 -9z"/>
<path d="M2846 1755 c8 -37 14 -45 14 -19 0 10 -5 26 -10 34 -8 11 -9 7 -4
-15z"/>
<path d="M3055 1710 c0 -15 3 -26 8 -23 4 2 7 13 7 23 0 10 -3 21 -7 23 -5 3
-8 -8 -8 -23z"/>
<path d="M2820 1635 c0 -8 2 -15 4 -15 2 0 6 7 10 15 3 8 1 15 -4 15 -6 0 -10
-7 -10 -15z"/>
<path d="M3117 1616 c-3 -8 -2 -18 4 -22 16 -9 22 2 11 21 -8 15 -10 16 -15 1z"/>
<path d="M3141 1534 c0 -11 3 -14 6 -6 3 7 2 16 -1 19 -3 4 -6 -2 -5 -13z"/>
<path d="M2792 1510 c0 -14 2 -19 5 -12 2 6 2 18 0 25 -3 6 -5 1 -5 -13z"/>
<path d="M2782 1460 c0 -14 2 -19 5 -12 2 6 2 18 0 25 -3 6 -5 1 -5 -13z"/>
<path d="M3149 1440 c-7 -35 -4 -48 7 -38 3 4 4 21 2 40 l-3 33 -6 -35z"/>
<path d="M3070 1430 c0 -5 -12 -16 -26 -23 -22 -12 -24 -15 -10 -20 10 -4 15
-3 11 3 -3 5 6 12 20 16 13 3 23 10 20 14 -3 5 1 11 7 13 8 3 6 6 -4 6 -10 1
-18 -3 -18 -9z"/>
<path d="M2772 1405 c0 -16 2 -22 5 -12 2 9 2 23 0 30 -3 6 -5 -1 -5 -18z"/>
<path d="M2996 1415 c-25 -19 -9 -19 24 0 14 8 19 14 10 14 -8 0 -24 -6 -34
-14z"/>
<path d="M3105 1410 c3 -5 11 -10 16 -10 6 0 7 5 4 10 -3 6 -11 10 -16 10 -6
0 -7 -4 -4 -10z"/>
<path d="M2791 1394 c0 -11 3 -14 6 -6 3 7 2 16 -1 19 -3 4 -6 -2 -5 -13z"/>
<path d="M2955 1352 c-27 -20 -58 -47 -68 -59 -10 -13 -22 -21 -27 -18 -5 3
-12 1 -15 -5 -5 -8 -11 -8 -20 0 -10 8 -15 8 -21 -1 -4 -7 -3 -9 4 -5 6 3 17
-3 25 -14 16 -22 29 -17 20 8 -4 10 -3 14 2 10 4 -4 27 9 49 30 23 21 56 47
74 57 17 11 32 23 32 27 0 11 2 12 -55 -30z"/>
<path d="M2782 1340 c0 -14 2 -19 5 -12 2 6 2 18 0 25 -3 6 -5 1 -5 -13z"/>
<path d="M2909 1343 c-13 -16 -12 -17 4 -4 9 7 17 15 17 17 0 8 -8 3 -21 -13z"/>
<path d="M2765 1315 c3 -23 2 -35 -3 -28 -5 8 -8 0 -8 -21 0 -19 4 -32 8 -30
4 3 8 14 8 25 0 11 4 18 10 14 6 -3 6 5 0 22 -17 54 -20 58 -15 18z"/>
<path d="M2746 1190 c-3 -18 -4 -35 -1 -38 3 -3 5 2 5 11 0 8 5 17 12 19 8 3
8 9 1 22 -9 16 -11 14 -17 -14z"/>
<path d="M2779 1178 c4 -28 6 -29 9 -9 2 13 0 27 -5 32 -6 6 -7 -3 -4 -23z"/>
<path d="M2735 1099 l0 -39 17 33 c18 34 24 62 8 37 -7 -11 -12 -12 -18 -3 -4
7 -7 -5 -7 -28z"/>
<path d="M2782 1118 c-14 -14 -16 -42 -3 -34 7 5 23 46 17 46 -1 0 -7 -5 -14
-12z"/>
<path d="M2755 1050 c-3 -5 -1 -10 4 -10 6 0 11 5 11 10 0 6 -2 10 -4 10 -3 0
-8 -4 -11 -10z"/>
<path d="M430 1280 c8 -5 20 -10 25 -10 6 0 3 5 -5 10 -8 5 -19 10 -25 10 -5
0 -3 -5 5 -10z"/>
<path d="M510 1245 c25 -13 41 -24 36 -25 -5 0 -1 -9 9 -20 10 -11 22 -17 27
-14 13 8 -21 43 -64 65 -54 28 -61 22 -8 -6z m61 -42 c13 -16 12 -17 -3 -4
-10 7 -18 15 -18 17 0 8 8 3 21 -13z"/>
<path d="M180 1235 c-7 -9 -8 -15 -2 -15 5 0 12 7 16 15 3 8 4 15 2 15 -2 0
-9 -7 -16 -15z"/>
<path d="M145 1209 c-4 -6 -4 -13 -1 -16 3 -4 6 -1 6 6 0 7 5 9 12 5 7 -4 8
-3 4 4 -9 15 -13 15 -21 1z"/>
<path d="M590 1164 c0 -11 28 -33 34 -27 10 10 7 25 -4 18 -5 -3 -10 -1 -10 4
0 6 -4 11 -10 11 -5 0 -10 -3 -10 -6z"/>
<path d="M77 1103 c-11 -10 -8 -25 3 -18 6 3 10 -1 10 -10 0 -11 -5 -15 -15
-11 -8 3 -15 1 -15 -3 0 -5 7 -11 14 -14 10 -4 16 -25 19 -59 2 -40 4 -35 4
23 1 74 -6 106 -20 92z"/>
<path d="M622 1087 c8 -20 14 -24 20 -15 5 9 8 7 9 -7 0 -11 3 -15 5 -8 3 7 1
20 -5 30 -8 13 -10 14 -11 4 0 -11 -4 -9 -15 5 -14 18 -14 17 -3 -9z"/>
<path d="M652 1015 c0 -16 2 -22 5 -12 2 9 2 23 0 30 -3 6 -5 -1 -5 -18z"/>
<path d="M624 956 c-3 -8 -4 -23 -2 -33 3 -11 6 -6 9 15 6 34 2 42 -7 18z"/>
<path d="M71 944 c0 -11 3 -14 6 -6 3 7 2 16 -1 19 -3 4 -6 -2 -5 -13z"/>
<path d="M643 870 c0 -25 2 -35 4 -22 2 12 2 32 0 45 -2 12 -4 2 -4 -23z"/>
<path d="M71 854 c0 -11 3 -14 6 -6 3 7 2 16 -1 19 -3 4 -6 -2 -5 -13z"/>
<path d="M91 784 c0 -11 3 -14 6 -6 3 7 2 16 -1 19 -3 4 -6 -2 -5 -13z"/>
<path d="M99 739 c0 -22 -1 -23 -9 -4 -11 24 -11 1 -1 -35 7 -23 8 -22 15 14
4 21 5 41 2 44 -3 3 -6 -6 -7 -19z"/>
<path d="M96 645 c-9 -26 -7 -32 5 -12 6 10 9 21 6 23 -2 3 -7 -2 -11 -11z"/>
<path d="M113 565 c0 -22 2 -30 4 -17 2 12 2 30 0 40 -3 9 -5 -1 -4 -23z"/>
<path d="M91 544 c0 -11 3 -14 6 -6 3 7 2 16 -1 19 -3 4 -6 -2 -5 -13z"/>
<path d="M101 508 c0 -9 -4 -25 -7 -35 -5 -17 -5 -17 6 0 6 10 9 25 7 35 -4
15 -5 15 -6 0z"/>
<path d="M106 452 c-2 -4 -1 -14 5 -22 7 -12 9 -10 9 8 0 23 -5 28 -14 14z"/>
<path d="M101 384 c0 -11 3 -14 6 -6 3 7 2 16 -1 19 -3 4 -6 -2 -5 -13z"/>
<path d="M123 325 c0 -44 2 -61 4 -37 2 23 2 59 0 80 -2 20 -4 1 -4 -43z"/>
<path d="M101 304 c0 -11 3 -14 6 -6 3 7 2 16 -1 19 -3 4 -6 -2 -5 -13z"/>
<path d="M112 210 c0 -14 2 -19 5 -12 2 6 2 18 0 25 -3 6 -5 1 -5 -13z"/>
<path d="M129 173 c0 -5 -2 -16 -4 -26 -2 -11 -1 -16 3 -13 8 8 14 46 7 46 -3
0 -5 -3 -6 -7z"/>
<path d="M2999 1250 c-34 -18 -69 -50 -54 -50 4 0 -3 -8 -16 -18 -15 -13 -19
-21 -11 -26 7 -4 12 -1 12 7 0 8 7 18 16 21 8 3 12 10 9 16 -3 5 2 10 11 10
10 0 14 3 10 7 -4 4 12 17 36 30 24 12 39 22 33 22 -5 0 -26 -8 -46 -19z"/>
<path d="M3320 1247 c0 -2 9 -14 20 -27 11 -13 20 -19 20 -14 0 5 5 2 10 -6 5
-8 10 -10 10 -4 0 5 -13 20 -30 32 -16 13 -30 21 -30 19z"/>
<path d="M3396 1163 c-11 -11 -6 -23 10 -23 9 0 12 -5 8 -12 -4 -7 -3 -8 4 -4
7 4 12 2 12 -5 0 -7 3 -10 6 -6 4 3 -3 17 -14 31 -10 14 -22 22 -26 19z"/>
<path d="M2896 1147 c3 -10 9 -15 12 -12 3 3 0 11 -7 18 -10 9 -11 8 -5 -6z"/>
<path d="M2893 1094 c-4 -12 -8 -12 -13 -4 -5 9 -10 6 -15 -9 -4 -13 -4 -25
-1 -28 3 -4 6 2 6 13 0 14 3 15 8 6 6 -9 12 -6 20 13 6 14 9 25 6 25 -2 0 -7
-7 -11 -16z"/>
<path d="M3416 1090 c4 -13 7 -54 7 -90 0 -55 1 -57 4 -15 2 31 10 55 21 64
16 13 16 13 0 8 -13 -5 -18 -1 -18 11 0 9 -5 24 -11 32 -8 11 -9 9 -3 -10z"/>
<path d="M2862 1020 c0 -14 2 -19 5 -12 2 6 2 18 0 25 -3 6 -5 1 -5 -13z"/>
<path d="M2877 966 c-4 -10 -3 -15 3 -11 6 3 10 -2 11 -12 0 -10 3 -13 5 -6 3
7 1 20 -4 29 -8 15 -9 15 -15 0z"/>
<path d="M2873 875 c0 -22 2 -30 4 -17 2 12 2 30 0 40 -3 9 -5 -1 -4 -23z"/>
<path d="M3442 850 c0 -14 2 -19 5 -12 2 6 2 18 0 25 -3 6 -5 1 -5 -13z"/>
<path d="M3422 795 c0 -16 2 -22 5 -12 2 9 2 23 0 30 -3 6 -5 -1 -5 -18z"/>
<path d="M3412 740 c0 -14 2 -19 5 -12 2 6 2 18 0 25 -3 6 -5 1 -5 -13z"/>
<path d="M3431 734 c0 -11 3 -14 6 -6 3 7 2 16 -1 19 -3 4 -6 -2 -5 -13z"/>
<path d="M3427 703 c-2 -5 0 -21 4 -38 7 -29 7 -29 8 8 1 35 -3 46 -12 30z"/>
<path d="M3402 570 c0 -19 2 -27 5 -17 2 9 2 25 0 35 -3 9 -5 1 -5 -18z"/>
<path d="M3421 544 c0 -11 3 -14 6 -6 3 7 2 16 -1 19 -3 4 -6 -2 -5 -13z"/>
<path d="M3410 501 c0 -11 4 -22 9 -25 4 -3 6 6 3 19 -5 30 -12 33 -12 6z"/>
<path d="M3402 440 c0 -14 2 -19 5 -12 2 6 2 18 0 25 -3 6 -5 1 -5 -13z"/>
<path d="M3412 375 c0 -16 2 -22 5 -12 2 9 2 23 0 30 -3 6 -5 -1 -5 -18z"/>
<path d="M3391 299 c1 -30 5 -65 9 -79 4 -14 5 8 2 50 -6 89 -12 106 -11 29z"/>
<path d="M3412 320 c0 -14 2 -19 5 -12 2 6 2 18 0 25 -3 6 -5 1 -5 -13z"/>
<path d="M3382 145 c1 -41 9 -39 14 5 2 16 -1 30 -6 30 -5 0 -9 -16 -8 -35z"/>
<path d="M306 1215 c4 -8 10 -12 15 -9 11 6 2 24 -11 24 -5 0 -7 -7 -4 -15z"/>
<path d="M403 1223 c-18 -7 -16 -23 3 -23 8 0 12 5 8 11 -4 8 1 9 17 4 19 -5
21 -4 9 4 -16 12 -19 12 -37 4z"/>
<path d="M225 1190 c-3 -5 -2 -17 3 -26 8 -14 10 -12 10 9 0 29 -3 33 -13 17z"/>
<path d="M484 1169 c0 -13 3 -15 13 -7 7 6 13 12 13 13 0 2 -6 5 -13 8 -7 3
-13 -3 -13 -14z"/>
<path d="M184 1142 c-9 -14 -8 -18 6 -18 11 0 15 6 12 18 -2 10 -5 18 -6 18
-1 0 -6 -8 -12 -18z"/>
<path d="M505 1146 c-14 -10 -15 -15 -5 -21 9 -5 11 -4 6 3 -4 7 -3 12 3 12 5
0 11 -5 13 -12 3 -8 7 -6 11 5 8 22 -6 29 -28 13z"/>
<path d="M562 980 c0 -14 2 -19 5 -12 2 6 2 18 0 25 -3 6 -5 1 -5 -13z"/>
<path d="M183 585 c0 -33 2 -45 4 -27 2 18 2 45 0 60 -2 15 -4 0 -4 -33z"/>
<path d="M520 625 c0 -8 -4 -15 -10 -15 -5 0 -10 -4 -10 -10 0 -5 7 -10 15
-10 9 0 15 9 15 25 0 14 -2 25 -5 25 -3 0 -5 -7 -5 -15z"/>
<path d="M500 526 c0 -9 5 -16 10 -16 6 0 10 4 10 9 0 6 -4 13 -10 16 -5 3
-10 -1 -10 -9z"/>
<path d="M490 450 c0 -5 5 -10 10 -10 6 0 10 5 10 10 0 6 -4 10 -10 10 -5 0
-10 -4 -10 -10z"/>
<path d="M522 430 c0 -14 2 -19 5 -12 2 6 2 18 0 25 -3 6 -5 1 -5 -13z"/>
<path d="M186 407 c-3 -17 -1 -48 4 -67 6 -19 9 -69 6 -110 l-5 -75 10 69 c8
48 7 82 0 112 -6 23 -8 56 -5 73 4 17 4 31 1 31 -2 0 -8 -15 -11 -33z"/>
<path d="M215 400 c-4 -17 -5 -34 -2 -36 2 -3 7 10 11 27 8 42 0 50 -9 9z"/>
<path d="M481 384 c0 -11 3 -14 6 -6 3 7 2 16 -1 19 -3 4 -6 -2 -5 -13z"/>
<path d="M506 385 c4 -8 8 -15 10 -15 2 0 4 7 4 15 0 8 -4 15 -10 15 -5 0 -7
-7 -4 -15z"/>
<path d="M532 375 c0 -16 2 -22 5 -12 2 9 2 23 0 30 -3 6 -5 -1 -5 -18z"/>
<path d="M492 310 c0 -19 2 -27 5 -17 2 9 2 25 0 35 -3 9 -5 1 -5 -18z"/>
<path d="M526 315 c8 -37 14 -45 14 -19 0 10 -5 26 -10 34 -8 11 -9 7 -4 -15z"/>
<path d="M232 215 c0 -16 2 -22 5 -12 2 9 2 23 0 30 -3 6 -5 -1 -5 -18z"/>
<path d="M516 225 c4 -8 8 -15 10 -15 2 0 4 7 4 15 0 8 -4 15 -10 15 -5 0 -7
-7 -4 -15z"/>
<path d="M211 174 c0 -11 3 -14 6 -6 3 7 2 16 -1 19 -3 4 -6 -2 -5 -13z"/>
<path d="M511 115 c-1 -29 3 -45 8 -40 5 6 6 28 1 50 l-8 40 -1 -50z"/>
<path d="M193 110 c0 -25 2 -35 4 -22 2 12 2 32 0 45 -2 12 -4 2 -4 -23z"/>
<path d="M470 70 c-9 -6 -10 -10 -3 -10 6 0 15 5 18 10 8 12 4 12 -15 0z"/>
<path d="M3082 1221 c-11 -7 -10 -10 3 -15 21 -8 53 8 36 18 -6 4 -11 2 -11
-3 0 -6 -5 -11 -11 -11 -5 0 -7 5 -4 10 7 12 4 12 -13 1z"/>
<path d="M3195 1221 c-3 -5 -1 -12 5 -16 5 -3 10 -2 10 4 0 6 8 8 18 5 14 -5
15 -4 2 5 -19 13 -27 14 -35 2z"/>
<path d="M3283 1174 c0 -23 1 -24 9 -10 7 12 7 21 0 28 -6 6 -9 0 -9 -18z"/>
<path d="M3022 1181 c-11 -6 -10 -10 0 -19 11 -8 14 -7 14 9 0 10 0 19 -1 19
0 0 -6 -4 -13 -9z"/>
<path d="M2986 1152 c-2 -4 -1 -14 5 -22 6 -10 9 -11 9 -2 0 6 5 12 11 12 5 0
7 -5 3 -12 -4 -7 -3 -8 4 -4 16 10 15 14 -7 26 -11 5 -22 6 -25 2z"/>
<path d="M3320 1151 c0 -7 -4 -10 -9 -6 -5 3 -13 0 -17 -7 -4 -7 -4 -10 0 -6
5 4 20 2 34 -3 23 -9 24 -8 11 8 -7 10 -15 20 -16 22 -2 2 -3 -1 -3 -8z"/>
<path d="M2991 618 c-1 -15 4 -30 9 -33 12 -7 12 12 0 40 -8 18 -9 17 -9 -7z"/>
<path d="M3021 615 c1 -19 18 -51 18 -35 0 8 -4 22 -9 30 -5 8 -9 11 -9 5z"/>
<path d="M3332 540 c0 -14 2 -19 5 -12 2 6 2 18 0 25 -3 6 -5 1 -5 -13z"/>
<path d="M3000 519 c0 -11 5 -17 10 -14 6 3 10 13 10 21 0 8 -4 14 -10 14 -5
0 -10 -9 -10 -21z"/>
<path d="M3011 444 c0 -11 3 -14 6 -6 3 7 2 16 -1 19 -3 4 -6 -2 -5 -13z"/>
<path d="M3324 348 l-1 -93 8 67 c4 37 4 79 0 94 -4 15 -7 -13 -7 -68z"/>
<path d="M3292 420 c0 -8 4 -26 8 -40 6 -20 8 -21 8 -5 0 11 -3 29 -8 40 -5
12 -8 14 -8 5z"/>
<path d="M3015 399 c-4 -6 -4 -13 -1 -16 3 -4 6 -1 6 6 0 7 5 9 12 5 7 -4 8
-3 4 4 -9 15 -13 15 -21 1z"/>
<path d="M2983 335 c0 -51 2 -61 7 -38 4 17 4 49 0 70 -6 31 -7 25 -7 -32z"/>
<path d="M3021 299 c1 -30 5 -67 9 -84 4 -17 5 5 2 50 -6 93 -13 114 -11 34z"/>
<path d="M3283 240 c0 -25 2 -35 4 -22 2 12 2 32 0 45 -2 12 -4 2 -4 -23z"/>
<path d="M2992 220 c0 -14 2 -19 5 -12 2 6 2 18 0 25 -3 6 -5 1 -5 -13z"/>
<path d="M3323 150 c0 -47 2 -66 4 -42 2 23 2 61 0 85 -2 23 -4 4 -4 -43z"/>
<path d="M3022 135 c0 -16 2 -22 5 -12 2 9 2 23 0 30 -3 6 -5 -1 -5 -18z"/>
<path d="M2997 123 c-9 -9 -9 -41 1 -46 4 -3 7 8 7 24 0 16 0 29 -1 29 0 0 -4
-3 -7 -7z"/>
<path d="M3038 68 c5 -5 16 -8 23 -6 8 3 3 7 -10 11 -17 4 -21 3 -13 -5z"/>
<path d="M3228 73 c7 -3 16 -2 19 1 4 3 -2 6 -13 5 -11 0 -14 -3 -6 -6z"/>
<path d="M1213 663 c236 -2 618 -2 850 0 232 1 40 2 -428 2 -467 0 -657 -1
-422 -2z"/>
<path d="M2603 663 c26 -2 67 -2 90 0 23 2 2 3 -48 3 -49 0 -68 -1 -42 -3z"/>
<path d="M694 653 c4 -4 19 -8 34 -10 23 -2 24 -1 7 7 -24 11 -51 13 -41 3z"/>
<path d="M628 603 c7 -3 16 -2 19 1 4 3 -2 6 -13 5 -11 0 -14 -3 -6 -6z"/>
<path d="M2895 589 c-4 -6 -5 -12 -2 -15 2 -3 7 2 10 11 7 17 1 20 -8 4z"/>
<path d="M600 585 c-8 -45 -8 -47 2 -37 5 5 8 18 5 28 -3 11 -6 15 -7 9z"/>
<path d="M622 570 c0 -14 2 -19 5 -12 2 6 2 18 0 25 -3 6 -5 1 -5 -13z"/>
<path d="M2913 559 c-1 -10 2 -19 8 -19 11 0 12 27 1 34 -4 2 -9 -4 -9 -15z"/>
<path d="M580 520 c0 -5 5 -10 10 -10 6 0 10 5 10 10 0 6 -4 10 -10 10 -5 0
-10 -4 -10 -10z"/>
<path d="M610 526 c0 -2 7 -7 16 -10 8 -3 12 -2 9 4 -6 10 -25 14 -25 6z"/>
<path d="M1058 523 c12 -2 32 -2 45 0 12 2 2 4 -23 4 -25 0 -35 -2 -22 -4z"/>
<path d="M2658 523 c12 -2 32 -2 45 0 12 2 2 4 -23 4 -25 0 -35 -2 -22 -4z"/>
<path d="M2895 520 c3 -5 8 -10 11 -10 2 0 4 5 4 10 0 6 -5 10 -11 10 -5 0 -7
-4 -4 -10z"/>
<path d="M596 452 c-2 -4 -1 -14 4 -22 7 -11 9 -9 7 8 -1 24 -3 26 -11 14z"/>
<path d="M2913 439 c-2 -23 3 -25 10 -4 4 8 3 16 -1 19 -4 3 -9 -4 -9 -15z"/>
<path d="M918 443 c23 -2 61 -2 85 0 23 2 4 4 -43 4 -47 0 -66 -2 -42 -4z"/>
<path d="M1698 443 c12 -2 32 -2 45 0 12 2 2 4 -23 4 -25 0 -35 -2 -22 -4z"/>
<path d="M1858 443 c12 -2 32 -2 45 0 12 2 2 4 -23 4 -25 0 -35 -2 -22 -4z"/>
<path d="M2338 443 c12 -2 32 -2 45 0 12 2 2 4 -23 4 -25 0 -35 -2 -22 -4z"/>
<path d="M738 423 c12 -2 32 -2 45 0 12 2 2 4 -23 4 -25 0 -35 -2 -22 -4z"/>
<path d="M918 423 c23 -2 61 -2 85 0 23 2 4 4 -43 4 -47 0 -66 -2 -42 -4z"/>
<path d="M1158 423 c23 -2 61 -2 85 0 23 2 4 4 -43 4 -47 0 -66 -2 -42 -4z"/>
<path d="M1618 423 c12 -2 32 -2 45 0 12 2 2 4 -23 4 -25 0 -35 -2 -22 -4z"/>
<path d="M1878 423 c23 -2 61 -2 85 0 23 2 4 4 -43 4 -47 0 -66 -2 -42 -4z"/>
<path d="M2278 423 c23 -2 61 -2 85 0 23 2 4 4 -43 4 -47 0 -66 -2 -42 -4z"/>
<path d="M2498 423 c12 -2 32 -2 45 0 12 2 2 4 -23 4 -25 0 -35 -2 -22 -4z"/>
<path d="M620 391 c20 -39 37 -44 70 -21 16 12 30 24 30 26 0 7 -20 -5 -42
-24 -14 -12 -20 -12 -33 -2 -8 7 -15 17 -15 22 0 6 7 5 15 -2 13 -11 18 -11
28 0 9 10 9 11 0 6 -7 -4 -19 -4 -25 1 -25 15 -38 12 -28 -6z"/>
<path d="M2894 395 c-4 -8 -10 -15 -16 -15 -5 0 -7 4 -4 9 8 12 -44 5 -57 -8
-8 -8 -5 -18 11 -34 20 -19 22 -20 16 -3 -5 14 -4 17 5 12 6 -4 19 -2 27 5 17
14 38 49 29 49 -3 0 -8 -7 -11 -15z m-24 -25 c0 -4 -11 -7 -25 -7 -26 0 -34
12 -12 20 15 5 37 -2 37 -13z"/>
<path d="M750 310 c8 -5 20 -10 25 -10 6 0 3 5 -5 10 -8 5 -19 10 -25 10 -5 0
-3 -5 5 -10z"/>
<path d="M590 308 c0 -9 7 -22 17 -29 15 -13 15 -12 3 11 -17 34 -20 36 -20
18z"/>
<path d="M594 226 c1 -27 4 -39 9 -31 4 8 6 26 4 39 -5 44 -14 38 -13 -8z"/>
<path d="M2912 294 c-7 -8 -8 -14 -3 -14 10 0 25 19 20 25 -2 1 -10 -3 -17
-11z"/>
<path d="M2915 242 c-3 -16 -2 -38 3 -51 6 -18 8 -11 8 28 0 28 -1 51 -2 51
-1 0 -5 -13 -9 -28z"/>
<path d="M2925 120 c3 -5 8 -10 11 -10 2 0 4 5 4 10 0 6 -5 10 -11 10 -5 0 -7
-4 -4 -10z"/>
<path d="M798 143 c45 -2 119 -2 165 0 45 1 8 3 -83 3 -91 0 -128 -2 -82 -3z"/>
<path d="M1498 143 c34 -2 90 -2 125 0 34 2 6 3 -63 3 -69 0 -97 -1 -62 -3z"/>
<path d="M2098 143 c12 -2 32 -2 45 0 12 2 2 4 -23 4 -25 0 -35 -2 -22 -4z"/>
<path d="M2298 143 c34 -2 90 -2 125 0 34 2 6 3 -63 3 -69 0 -97 -1 -62 -3z"/>
<path d="M2618 143 c34 -2 90 -2 125 0 34 2 6 3 -63 3 -69 0 -97 -1 -62 -3z"/>
</g>
</svg>
